<svg xmlns="http://www.w3.org/2000/svg" viewBox="0 0 128 128" fill="none">
  <rect width="128" height="128" rx="24" fill="#238636"/>
  <path d="M64 16C37.5 16 16 37.5 16 64s21.5 48 48 48 48-21.5 48-48S90.5 16 64 16zm0 88c-22.1 0-40-17.9-40-40s17.9-40 40-40 40 17.9 40 40-17.9 40-40 40z" fill="#fff" opacity="0.9"/>
  <path d="M64 32c-17.7 0-32 14.3-32 32s14.3 32 32 32 32-14.3 32-32-14.3-32-32-32zm16 34h-12v12c0 1.1-.9 2-2 2s-2-.9-2-2V66H52c-1.1 0-2-.9-2-2s.9-2 2-2h12V50c0-1.1.9-2 2-2s2 .9 2 2v12h12c1.1 0 2 .9 2 2s-.9 2-2 2z" fill="#fff"/>
</svg>
